<svg xmlns="http://www.w3.org/2000/svg" viewBox="0 0 64 64">
  <defs>
    <linearGradient id="bg" x1="0" x2="0" y1="0" y2="1">
      <stop offset="0%" stop-color="#0b1021"/>
      <stop offset="100%" stop-color="#05070f"/>
    </linearGradient>
    <linearGradient id="barrel" x1="0" x2="1" y1="0" y2="0">
      <stop offset="0%" stop-color="#00f0ff"/>
      <stop offset="100%" stop-color="#00ffa3"/>
    </linearGradient>
  </defs>
  <rect width="64" height="64" rx="8" fill="url(#bg)"/>
  <rect x="4" y="4" width="56" height="56" rx="8" fill="none" stroke="#00ff99" stroke-width="2" opacity="0.6"/>
  <rect x="10" y="30" width="32" height="8" rx="3" fill="url(#barrel)"/>
  <rect x="28" y="24" width="10" height="20" rx="3" fill="#00c8ff"/>
  <rect x="16" y="34" width="18" height="4" rx="2" fill="#003c5c"/>
  <circle cx="42" cy="34" r="5" fill="#ffe066" stroke="#ff9f1c" stroke-width="2"/>
  <polygon points="47,32 56,30 52,34" fill="#ffd166"/>
  <polygon points="47,36 55,40 52,34" fill="#ffb347"/>
  <circle cx="21" cy="28" r="2" fill="#00ff99"/>
  <circle cx="24" cy="40" r="1.6" fill="#00ff99"/>
  <path d="M8 20h12M8 44h12M44 20h12M44 44h12" stroke="#0d2038" stroke-width="2" stroke-linecap="round" opacity="0.6"/>
</svg>
